<svg xmlns="http://www.w3.org/2000/svg" xmlns:xlink="http://www.w3.org/1999/xlink" viewBox="0 0 180.28 140.59"><defs><style>.cls-1{fill:none;}.cls-2{isolation:isolate;}.cls-3{clip-path:url(#clip-path);}.cls-4{clip-path:url(#clip-path-2);}.cls-5{clip-path:url(#clip-path-3);}.cls-6{fill:#850000;}.cls-7{clip-path:url(#clip-path-4);}.cls-8{clip-path:url(#clip-path-5);}.cls-9{clip-path:url(#clip-path-6);}.cls-10{clip-path:url(#clip-path-7);}.cls-11{clip-path:url(#clip-path-8);}.cls-12{clip-path:url(#clip-path-9);}.cls-13{clip-path:url(#clip-path-10);}.cls-14{clip-path:url(#clip-path-11);}.cls-15{clip-path:url(#clip-path-12);}.cls-16{clip-path:url(#clip-path-13);}.cls-17{clip-path:url(#clip-path-14);}.cls-18{clip-path:url(#clip-path-15);}.cls-19{fill:#f10000;}.cls-20{clip-path:url(#clip-path-16);}.cls-21{clip-path:url(#clip-path-17);}.cls-22{clip-path:url(#clip-path-18);}.cls-23{clip-path:url(#clip-path-19);}.cls-24{clip-path:url(#clip-path-20);}.cls-25{clip-path:url(#clip-path-21);}.cls-26{clip-path:url(#clip-path-22);}.cls-27{fill:maroon;}.cls-28{clip-path:url(#clip-path-23);}.cls-29{clip-path:url(#clip-path-24);}.cls-30{clip-path:url(#clip-path-25);}.cls-31{clip-path:url(#clip-path-26);}.cls-32{clip-path:url(#clip-path-27);}.cls-33{clip-path:url(#clip-path-28);}.cls-34{clip-path:url(#clip-path-29);}.cls-35{clip-path:url(#clip-path-30);}.cls-36{clip-path:url(#clip-path-31);}.cls-37{clip-path:url(#clip-path-32);}.cls-38{clip-path:url(#clip-path-33);}.cls-39{clip-path:url(#clip-path-34);}.cls-40{clip-path:url(#clip-path-35);}.cls-41{clip-path:url(#clip-path-36);}.cls-42{clip-path:url(#clip-path-37);}.cls-43{clip-path:url(#clip-path-38);}.cls-44{clip-path:url(#clip-path-39);}.cls-45{clip-path:url(#clip-path-40);}.cls-46{clip-path:url(#clip-path-41);}.cls-47{clip-path:url(#clip-path-42);}.cls-48{clip-path:url(#clip-path-43);}.cls-49{clip-path:url(#clip-path-44);}.cls-50{clip-path:url(#clip-path-45);}.cls-51{clip-path:url(#clip-path-46);}.cls-52{clip-path:url(#clip-path-47);}.cls-53{clip-path:url(#clip-path-48);}.cls-54{clip-path:url(#clip-path-49);}.cls-55{clip-path:url(#clip-path-50);}.cls-56{clip-path:url(#clip-path-51);}.cls-57{clip-path:url(#clip-path-52);}.cls-58{clip-path:url(#clip-path-53);}.cls-59{clip-path:url(#clip-path-54);}.cls-60{clip-path:url(#clip-path-55);}.cls-61{clip-path:url(#clip-path-56);}.cls-62{clip-path:url(#clip-path-57);}.cls-63{clip-path:url(#clip-path-58);}.cls-64{clip-path:url(#clip-path-59);}.cls-65{clip-path:url(#clip-path-60);}.cls-66{clip-path:url(#clip-path-61);}.cls-67{clip-path:url(#clip-path-62);}.cls-68{clip-path:url(#clip-path-63);}.cls-69{clip-path:url(#clip-path-64);}.cls-70{clip-path:url(#clip-path-65);}.cls-71{clip-path:url(#clip-path-66);}.cls-72{clip-path:url(#clip-path-67);}.cls-73{clip-path:url(#clip-path-68);}.cls-74{clip-path:url(#clip-path-69);}.cls-75{clip-path:url(#clip-path-70);}.cls-76{clip-path:url(#clip-path-71);}.cls-77{clip-path:url(#clip-path-72);}.cls-78{clip-path:url(#clip-path-73);}.cls-79{clip-path:url(#clip-path-74);}</style><clipPath id="clip-path"><path class="cls-1" d="M159.17,33.42c-.37-4-1.5-16-8-15.66q3.08-2.13,6.17-4.24c6.48-.34,7.61,11.7,8,15.66Z"/></clipPath><clipPath id="clip-path-2"><path class="cls-1" d="M151.2,17.76a4.27,4.27,0,0,0-2.27.75l6.18-4.24a4.24,4.24,0,0,1,2.26-.75Q154.28,15.64,151.2,17.76Z"/></clipPath><clipPath id="clip-path-3"><path class="cls-1" d="M142.29,9.79l6.18-4.24A14.91,14.91,0,0,1,156.32,3a16.11,16.11,0,0,1,13.92,6.26c3.82,4.58,6.16,11,6.92,19.22.73,7.79-.42,14.29-3.42,19.3L167.56,52c3-5,4.15-11.51,3.42-19.3-.76-8.18-3.09-14.64-6.92-19.22a16.1,16.1,0,0,0-13.92-6.26A14.94,14.94,0,0,0,142.29,9.79Z"/></clipPath><clipPath id="clip-path-4"><path class="cls-1" d="M138.84,13a16.88,16.88,0,0,1,3.45-3.19l6.18-4.24A16.88,16.88,0,0,0,145,8.74Z"/></clipPath><clipPath id="clip-path-5"><path class="cls-1" d="M158.65,44.27c.78-2.7.95-6.25.52-10.85l6.18-4.24A30.26,30.26,0,0,1,164.83,40Z"/></clipPath><clipPath id="clip-path-6"><path class="cls-1" d="M150.64,21l6.18-4.24a1.52,1.52,0,0,1,.83-.29c2.27-.12,4,4.57,4.81,12.86a27.75,27.75,0,0,1-.43,9.78l-6.18,4.24a27.75,27.75,0,0,0,.43-9.78c-.78-8.29-2.53-13-4.81-12.86A1.54,1.54,0,0,0,150.64,21Z"/></clipPath><clipPath id="clip-path-7"><path class="cls-1" d="M169,53l-6.18,4.24A16.52,16.52,0,0,0,167.56,52l6.18-4.24A16.52,16.52,0,0,1,169,53Z"/></clipPath><clipPath id="clip-path-8"><path class="cls-1" d="M160.59,41.69l-6.17,4.24a4.36,4.36,0,0,0,1.43-2.58L162,39.11A4.36,4.36,0,0,1,160.59,41.69Z"/></clipPath><clipPath id="clip-path-9"><path class="cls-1" d="M156.11,48.4a6.92,6.92,0,0,0,2.54-4.13L164.83,40a6.92,6.92,0,0,1-2.54,4.13Z"/></clipPath><clipPath id="clip-path-10"><path class="cls-1" d="M162.29,44.16l-6.18,4.24a4.29,4.29,0,0,1-2.25.76c-1.57.08-3.82-.62-5.61-4.42a33.45,33.45,0,0,1-2.51-10.93c-.45-4.82-.26-8.44.56-11.06a7.49,7.49,0,0,1,2.63-4.24l6.18-4.24a7.55,7.55,0,0,0-2.64,4.24c-.81,2.62-1,6.24-.55,11.06a33.2,33.2,0,0,0,2.51,10.93c1.78,3.8,4,4.5,5.61,4.42A4.32,4.32,0,0,0,162.29,44.16Z"/></clipPath><clipPath id="clip-path-11"><path class="cls-1" d="M162.8,57.27a14.39,14.39,0,0,1-7.57,2.43l6.17-4.24A14.39,14.39,0,0,0,169,53C167.12,54.3,164.65,56,162.8,57.27Z"/></clipPath><clipPath id="clip-path-12"><path class="cls-1" d="M133.93,34c-.85-9,.8-16.11,4.91-21.06L145,8.74c-4.11,4.95-5.76,12-4.91,21.06Z"/></clipPath><clipPath id="clip-path-13"><path class="cls-1" d="M155.23,59.7a16.82,16.82,0,0,1-12.75-4.76l6.18-4.24a16.79,16.79,0,0,0,12.74,4.76Z"/></clipPath><clipPath id="clip-path-14"><path class="cls-1" d="M142.48,54.94c-4.79-4.41-7.67-11.44-8.55-20.9l6.18-4.24c.88,9.46,3.75,16.49,8.55,20.9Z"/></clipPath><clipPath id="clip-path-15"><path class="cls-1" d="M170.68,55.49l-6.18,4.24a17.26,17.26,0,0,1-9,2.92,19.93,19.93,0,0,1-14.91-5.55c-5.39-5-8.6-12.66-9.56-22.9-.92-9.84.95-17.63,5.56-23.18a20,20,0,0,1,4-3.68l6.18-4.24a19.7,19.7,0,0,0-4,3.68c-4.61,5.55-6.48,13.34-5.56,23.18.95,10.24,4.17,17.94,9.55,22.9a20,20,0,0,0,14.92,5.55A17.26,17.26,0,0,0,170.68,55.49Z"/></clipPath><clipPath id="clip-path-16"><path class="cls-1" d="M127.06,27.36l-6.18,4.24c2.34-1.61,3.27-4.31,2.91-8.24a13.57,13.57,0,0,0-5-9.73c-2.91-2.36-7.31-3.4-13.06-3.1l6.18-4.24C117.67,6,122.07,7,125,9.39a13.56,13.56,0,0,1,5,9.73C130.33,23.05,129.4,25.75,127.06,27.36Z"/></clipPath><clipPath id="clip-path-17"><path class="cls-1" d="M128.76,29.83l-6.18,4.24-.59.38,6.18-4.24Z"/></clipPath><clipPath id="clip-path-18"><path class="cls-1" d="M127.06,27.36l-6.18,4.24a10.76,10.76,0,0,1-4.67,1.62L122.39,29A10.76,10.76,0,0,0,127.06,27.36Z"/></clipPath><clipPath id="clip-path-19"><path class="cls-1" d="M112.71,25c-.37-3.95-2.86-6-7-5.79l6.18-4.24c4.16-.21,6.64,1.84,7,5.79Z"/></clipPath><clipPath id="clip-path-20"><path class="cls-1" d="M105.69,19.16l-.67.06L111.2,15l.67-.06L108.78,17l-.81.56-.4.27-1.52,1.05A2.05,2.05,0,0,1,105.69,19.16Z"/></clipPath><clipPath id="clip-path-21"><path class="cls-1" d="M111.2,15,105,19.22l-.88.1,6.18-4.24Z"/></clipPath><clipPath id="clip-path-22"><path class="cls-1" d="M111.12,29.61A5.49,5.49,0,0,0,112.71,25l6.17-4.24a5.49,5.49,0,0,1-1.58,4.66Z"/></clipPath><clipPath id="clip-path-23"><path class="cls-1" d="M110.44,30.15a6,6,0,0,0,.68-.54l6.18-4.24a6.08,6.08,0,0,1-.69.54Z"/></clipPath><clipPath id="clip-path-24"><path class="cls-1" d="M114.91,23.44l-6.18,4.24a3.44,3.44,0,0,0,.36-.28,2.64,2.64,0,0,0,.73-2.3c-.18-1.91-.91-3.14-3.85-3l6.17-4.24c3-.15,3.67,1.08,3.85,3a2.61,2.61,0,0,1-.72,2.3A3.44,3.44,0,0,1,114.91,23.44Z"/></clipPath><clipPath id="clip-path-25"><path class="cls-1" d="M130.1,52.32l-6.17,4.24c2.42-2.68,3.39-6,3-10.23-.31-3.26-1.28-5.71-2.91-7.28s-4.22-2.57-7.63-2.89l6.18-4.24c3.4.32,6,1.29,7.62,2.89s2.61,4,2.92,7.28C133.5,46.3,132.52,49.64,130.1,52.32Z"/></clipPath><clipPath id="clip-path-26"><path class="cls-1" d="M116.61,25.91l-6.17,4.24a7.94,7.94,0,0,1-4.12,1.25l6.18-4.24A7.87,7.87,0,0,0,116.61,25.91Z"/></clipPath><clipPath id="clip-path-27"><path class="cls-1" d="M115.21,45.48a6.41,6.41,0,0,0-2.55-4.77l6.17-4.24a6.42,6.42,0,0,1,2.56,4.77Z"/></clipPath><clipPath id="clip-path-28"><path class="cls-1" d="M127.88,54.29l-6.18,4.24a12.26,12.26,0,0,0,2.23-2l6.17-4.24A12.54,12.54,0,0,1,127.88,54.29Z"/></clipPath><clipPath id="clip-path-29"><path class="cls-1" d="M112.66,40.71a8.22,8.22,0,0,0-5.43-1.42l6.18-4.24a8.2,8.2,0,0,1,5.42,1.42Z"/></clipPath><clipPath id="clip-path-30"><path class="cls-1" d="M113.6,50.51a6.15,6.15,0,0,0,1.61-5l6.18-4.24a6.15,6.15,0,0,1-1.61,5Z"/></clipPath><clipPath id="clip-path-31"><path class="cls-1" d="M117.66,44.16l-6.18,4.24a3.29,3.29,0,0,0,.83-2.77,3.35,3.35,0,0,0-1.3-2.56,5.1,5.1,0,0,0-3.18-.84L114,38a5.12,5.12,0,0,1,3.18.84,3.38,3.38,0,0,1,1.3,2.56A3.33,3.33,0,0,1,117.66,44.16Z"/></clipPath><clipPath id="clip-path-32"><path class="cls-1" d="M117.13,44.6,111,48.84a3.67,3.67,0,0,0,.52-.44l6.18-4.24A3.75,3.75,0,0,1,117.13,44.6Z"/></clipPath><clipPath id="clip-path-33"><path class="cls-1" d="M112.65,51.32a6.67,6.67,0,0,0,.95-.81l6.18-4.24a6.24,6.24,0,0,1-1,.81Z"/></clipPath><clipPath id="clip-path-34"><path class="cls-1" d="M121.7,58.53a14.93,14.93,0,0,1-7.87,2.4L120,56.69a15,15,0,0,0,7.87-2.4Z"/></clipPath><clipPath id="clip-path-35"><path class="cls-1" d="M118.82,47.08l-6.17,4.24a7.84,7.84,0,0,1-4.07,1.25H108l6.18-4.24h.59A7.8,7.8,0,0,0,118.82,47.08Z"/></clipPath><clipPath id="clip-path-36"><path class="cls-1" d="M114.17,48.34,108,52.58h-.76l6.18-4.24Z"/></clipPath><clipPath id="clip-path-37"><path class="cls-1" d="M129.61,56.73,123.44,61a17.83,17.83,0,0,1-9.33,2.91l6.18-4.24A17.77,17.77,0,0,0,129.61,56.73Z"/></clipPath><clipPath id="clip-path-38"><path class="cls-1" d="M71.64,38c-.37-4-1.49-16-8-15.65l6.18-4.24c6.47-.34,7.6,11.69,8,15.65Z"/></clipPath><clipPath id="clip-path-39"><path class="cls-1" d="M63.67,22.35a4.27,4.27,0,0,0-2.27.75l6.18-4.24a4.24,4.24,0,0,1,2.27-.75l-3.09,2.12-2,1.36L64,22.1A2.22,2.22,0,0,1,63.67,22.35Z"/></clipPath><clipPath id="clip-path-40"><path class="cls-1" d="M54.77,14.38l6.17-4.24a14.86,14.86,0,0,1,7.85-2.57C74.4,7.27,79,9.32,82.71,13.83s6.15,11,6.92,19.22c.73,7.79-.42,14.29-3.41,19.3L80,56.59c3-5,4.14-11.51,3.41-19.3-.77-8.18-3.09-14.64-6.92-19.22s-8.31-6.56-13.92-6.26A14.79,14.79,0,0,0,54.77,14.38Z"/></clipPath><clipPath id="clip-path-41"><path class="cls-1" d="M51.31,17.57a17.18,17.18,0,0,1,3.46-3.19l6.17-4.24a17.14,17.14,0,0,0-3.45,3.19Z"/></clipPath><clipPath id="clip-path-42"><path class="cls-1" d="M71.11,48.85c.79-2.7,1-6.24.53-10.85l6.18-4.24c.43,4.61.26,8.15-.53,10.85C75.44,45.89,73,47.58,71.11,48.85Z"/></clipPath><clipPath id="clip-path-43"><path class="cls-1" d="M63.11,25.59l6.17-4.24a1.65,1.65,0,0,1,.84-.3c2.28-.11,4,4.57,4.8,12.87a27.72,27.72,0,0,1-.42,9.77l-6.18,4.24a27.48,27.48,0,0,0,.42-9.77c-.77-8.3-2.52-13-4.79-12.87A1.65,1.65,0,0,0,63.11,25.59Z"/></clipPath><clipPath id="clip-path-44"><path class="cls-1" d="M81.45,57.61l-6.18,4.24A16.51,16.51,0,0,0,80,56.59l6.18-4.24A16.51,16.51,0,0,1,81.45,57.61Z"/></clipPath><clipPath id="clip-path-45"><path class="cls-1" d="M73.07,46.27l-6.18,4.24a4.36,4.36,0,0,0,1.43-2.58l6.18-4.24A4.36,4.36,0,0,1,73.07,46.27Z"/></clipPath><clipPath id="clip-path-46"><path class="cls-1" d="M68.58,53a6.87,6.87,0,0,0,2.53-4.14l6.18-4.24a6.92,6.92,0,0,1-2.53,4.14Z"/></clipPath><clipPath id="clip-path-47"><path class="cls-1" d="M74.76,48.75,68.58,53a4.3,4.3,0,0,1-2.25.75c-1.57.09-3.82-.62-5.61-4.41a33.23,33.23,0,0,1-2.5-10.93c-.45-4.82-.28-8.44.54-11.06A7.49,7.49,0,0,1,61.4,23.1l6.18-4.24a7.49,7.49,0,0,0-2.64,4.24c-.82,2.62-1,6.24-.54,11.06a33.26,33.26,0,0,0,2.49,10.93c1.8,3.79,4,4.5,5.62,4.41A4.33,4.33,0,0,0,74.76,48.75Z"/></clipPath><clipPath id="clip-path-48"><path class="cls-1" d="M75.27,61.85a14.4,14.4,0,0,1-7.58,2.44l6.18-4.24a14.4,14.4,0,0,0,7.58-2.44Z"/></clipPath><clipPath id="clip-path-49"><path class="cls-1" d="M46.39,38.63c-.84-9,.82-16.12,4.92-21.06l6.18-4.24c-4.11,4.94-5.76,12-4.92,21.06Z"/></clipPath><clipPath id="clip-path-50"><path class="cls-1" d="M67.69,64.29a16.86,16.86,0,0,1-12.75-4.76l6.18-4.24a16.86,16.86,0,0,0,12.75,4.76l-3.09,2.12-.41.28-.8.55-.39.27-.77.53A3.52,3.52,0,0,1,67.69,64.29Z"/></clipPath><clipPath id="clip-path-51"><path class="cls-1" d="M54.94,59.53c-4.78-4.41-7.66-11.45-8.55-20.9l6.18-4.24c.89,9.45,3.77,16.49,8.55,20.9Z"/></clipPath><clipPath id="clip-path-52"><path class="cls-1" d="M83.15,60.07,77,64.31a17.2,17.2,0,0,1-9,2.93,19.94,19.94,0,0,1-14.92-5.56c-5.38-5-8.59-12.66-9.55-22.9-.92-9.83,1-17.63,5.56-23.17a19.94,19.94,0,0,1,4-3.68l6.18-4.24a19.41,19.41,0,0,0-4,3.68c-4.61,5.54-6.48,13.34-5.56,23.17,1,10.24,4.17,17.94,9.55,22.9A19.93,19.93,0,0,0,74.14,63,17.21,17.21,0,0,0,83.15,60.07Z"/></clipPath><clipPath id="clip-path-53"><path class="cls-1" d="M39.53,32l-6.18,4.24c2.34-1.61,3.28-4.31,2.91-8.24a13.61,13.61,0,0,0-5-9.74c-2.9-2.36-7.3-3.4-13.07-3.1l6.18-4.24c5.77-.3,10.16.74,13.07,3.1a13.61,13.61,0,0,1,5,9.74C42.8,27.64,41.87,30.34,39.53,32Z"/></clipPath><clipPath id="clip-path-54"><path class="cls-1" d="M41.23,34.41l-6.18,4.24c-.19.14-.39.26-.6.39l6.18-4.24C40.84,34.67,41,34.55,41.23,34.41Z"/></clipPath><clipPath id="clip-path-55"><path class="cls-1" d="M39.53,32l-6.18,4.24a10.9,10.9,0,0,1-4.67,1.62l6.17-4.24A10.94,10.94,0,0,0,39.53,32Z"/></clipPath><clipPath id="clip-path-56"><path class="cls-1" d="M25.18,29.53c-.37-4-2.86-6-7-5.78l6.17-4.24c4.15-.22,6.65,1.83,7,5.78Z"/></clipPath><clipPath id="clip-path-57"><path class="cls-1" d="M18.17,23.75l-.67.05,6.18-4.24.66,0Z"/></clipPath><clipPath id="clip-path-58"><path class="cls-1" d="M23.68,19.56,17.5,23.8l-.89.1,6.18-4.24Z"/></clipPath><clipPath id="clip-path-59"><path class="cls-1" d="M23.58,34.19a5.46,5.46,0,0,0,1.6-4.66l6.18-4.24A5.49,5.49,0,0,1,29.76,30Z"/></clipPath><clipPath id="clip-path-60"><path class="cls-1" d="M22.9,34.75a6.13,6.13,0,0,0,.68-.56L29.76,30a5.44,5.44,0,0,1-.69.56Z"/></clipPath><clipPath id="clip-path-61"><path class="cls-1" d="M27.38,28,21.2,32.27a2.45,2.45,0,0,0,.35-.29,2.55,2.55,0,0,0,.73-2.29c-.18-1.91-.9-3.14-3.84-3l6.18-4.24c2.94-.15,3.66,1.08,3.84,3a2.58,2.58,0,0,1-.73,2.29A3.17,3.17,0,0,1,27.38,28Z"/></clipPath><clipPath id="clip-path-62"><path class="cls-1" d="M42.58,56.9,36.4,61.14c2.41-2.67,3.39-6,3-10.22-.31-3.26-1.29-5.71-2.92-7.28s-4.21-2.58-7.62-2.9L35,36.5c3.41.32,6,1.3,7.62,2.9s2.61,4,2.91,7.28C46,50.89,45,54.23,42.58,56.9Z"/></clipPath><clipPath id="clip-path-63"><path class="cls-1" d="M29.07,30.51,22.9,34.75A7.88,7.88,0,0,1,18.8,36L25,31.74A7.83,7.83,0,0,0,29.07,30.51Z"/></clipPath><clipPath id="clip-path-64"><path class="cls-1" d="M27.68,50.06a6.41,6.41,0,0,0-2.55-4.76l6.18-4.24a6.4,6.4,0,0,1,2.54,4.76Q30.78,48,27.68,50.06Z"/></clipPath><clipPath id="clip-path-65"><path class="cls-1" d="M40.35,58.88l-6.18,4.24a11.94,11.94,0,0,0,2.23-2l6.18-4.24A11.94,11.94,0,0,1,40.35,58.88Z"/></clipPath><clipPath id="clip-path-66"><path class="cls-1" d="M25.13,45.3a8.17,8.17,0,0,0-5.43-1.42l6.18-4.24a8.17,8.17,0,0,1,5.43,1.42Z"/></clipPath><clipPath id="clip-path-67"><path class="cls-1" d="M26.07,55.1a6.14,6.14,0,0,0,1.61-5q3.09-2.12,6.17-4.24a6.13,6.13,0,0,1-1.6,5Z"/></clipPath><clipPath id="clip-path-68"><path class="cls-1" d="M30.12,48.74,24,53a3.83,3.83,0,0,0-.48-5.32,5,5,0,0,0-3.16-.84l6.17-4.24a5,5,0,0,1,3.17.84A3.27,3.27,0,0,1,31,46,3.26,3.26,0,0,1,30.12,48.74Z"/></clipPath><clipPath id="clip-path-69"><path class="cls-1" d="M25.12,55.9a6.1,6.1,0,0,0,.95-.8l6.18-4.24a6.1,6.1,0,0,1-.95.8Z"/></clipPath><clipPath id="clip-path-70"><path class="cls-1" d="M29.6,49.18l-6.18,4.24A3.18,3.18,0,0,0,24,53l6.17-4.24A3.11,3.11,0,0,1,29.6,49.18Z"/></clipPath><clipPath id="clip-path-71"><path class="cls-1" d="M34.17,63.12a15,15,0,0,1-7.86,2.4l6.17-4.24a15.07,15.07,0,0,0,7.87-2.4Z"/></clipPath><clipPath id="clip-path-72"><path class="cls-1" d="M31.3,51.66,25.12,55.9a7.84,7.84,0,0,1-4.07,1.26h-.59l6.17-4.24h.6A7.84,7.84,0,0,0,31.3,51.66Z"/></clipPath><clipPath id="clip-path-73"><path class="cls-1" d="M26.63,52.93l-6.17,4.24H19.7l6.17-4.24Z"/></clipPath><clipPath id="clip-path-74"><path class="cls-1" d="M42.09,61.32l-6.18,4.24a17.89,17.89,0,0,1-9.33,2.91l6.18-4.24A17.92,17.92,0,0,0,42.09,61.32Z"/></clipPath></defs><g id="Layer_2" data-name="Layer 2"><g id="Layer_1-2" data-name="Layer 1"><g class="cls-2"><g class="cls-2"><g class="cls-3"><g class="cls-2"><path d="M164.83,40l-6.18,4.24c.78-2.7.95-6.25.52-10.85-.37-4-1.5-16-8-15.66a4.27,4.27,0,0,0-2.27.75l6.18-4.24a4.24,4.24,0,0,1,2.26-.75c6.48-.34,7.61,11.7,8,15.66A30.26,30.26,0,0,1,164.83,40"/></g></g></g><g class="cls-2"><g class="cls-4"><g class="cls-2"><path d="M164.83,40l-6.18,4.24c.78-2.7.95-6.25.52-10.85-.37-4-1.5-16-8-15.66a4.27,4.27,0,0,0-2.27.75l6.18-4.24a4.24,4.24,0,0,1,2.26-.75c6.48-.34,7.61,11.7,8,15.66A30.26,30.26,0,0,1,164.83,40"/></g></g></g><g class="cls-2"><g class="cls-5"><g class="cls-2"><path class="cls-6" d="M173.74,47.76,167.56,52c3-5,4.15-11.51,3.42-19.3-.76-8.18-3.09-14.64-6.92-19.22a16.1,16.1,0,0,0-13.92-6.26,14.94,14.94,0,0,0-7.85,2.57l6.18-4.24A14.91,14.91,0,0,1,156.32,3a16.11,16.11,0,0,1,13.92,6.26c3.82,4.58,6.16,11,6.92,19.22.73,7.79-.42,14.29-3.42,19.3"/></g></g></g><g class="cls-2"><g class="cls-7"><g class="cls-2"><path d="M169,53l-6.18,4.24a14.39,14.39,0,0,1-7.57,2.43,16.82,16.82,0,0,1-12.75-4.76c-4.79-4.41-7.67-11.44-8.55-20.9-.85-9,.8-16.11,4.91-21.06a16.88,16.88,0,0,1,3.45-3.19l6.18-4.24A16.88,16.88,0,0,0,145,8.74c-4.11,4.95-5.76,12-4.91,21.06.88,9.46,3.75,16.49,8.55,20.9a16.79,16.79,0,0,0,12.74,4.76A14.39,14.39,0,0,0,169,53"/></g></g></g><g class="cls-2"><g class="cls-8"><g class="cls-2"><path d="M164.83,40l-6.18,4.24c.78-2.7.95-6.25.52-10.85-.37-4-1.5-16-8-15.66a4.27,4.27,0,0,0-2.27.75l6.18-4.24a4.24,4.24,0,0,1,2.26-.75c6.48-.34,7.61,11.7,8,15.66A30.26,30.26,0,0,1,164.83,40"/></g></g></g><g class="cls-2"><g class="cls-9"><g class="cls-2"><path class="cls-6" d="M162,39.11l-6.18,4.24a27.75,27.75,0,0,0,.43-9.78c-.78-8.29-2.53-13-4.81-12.86a1.54,1.54,0,0,0-.83.29l6.18-4.24a1.52,1.52,0,0,1,.83-.29c2.27-.12,4,4.57,4.81,12.86a27.75,27.75,0,0,1-.43,9.78"/></g></g></g><g class="cls-2"><g class="cls-10"><g class="cls-2"><path class="cls-6" d="M169,53l-6.18,4.24A16.52,16.52,0,0,0,167.56,52l6.18-4.24A16.52,16.52,0,0,1,169,53"/></g></g></g><g class="cls-2"><g class="cls-11"><g class="cls-2"><path class="cls-6" d="M160.59,41.69l-6.17,4.24a4.36,4.36,0,0,0,1.43-2.58L162,39.11a4.36,4.36,0,0,1-1.44,2.58"/></g></g></g><g class="cls-2"><g class="cls-12"><g class="cls-2"><path d="M162.29,44.16l-6.18,4.24a6.92,6.92,0,0,0,2.54-4.13L164.83,40a6.92,6.92,0,0,1-2.54,4.13"/></g></g></g><g class="cls-2"><g class="cls-13"><g class="cls-2"><path class="cls-6" d="M162.29,44.16l-6.18,4.24a4.29,4.29,0,0,1-2.25.76c-1.57.08-3.82-.62-5.61-4.42a33.45,33.45,0,0,1-2.51-10.93c-.45-4.82-.26-8.44.56-11.06a7.49,7.49,0,0,1,2.63-4.24l6.18-4.24a7.55,7.55,0,0,0-2.64,4.24c-.81,2.62-1,6.24-.55,11.06a33.2,33.2,0,0,0,2.51,10.93c1.78,3.8,4,4.5,5.61,4.42a4.32,4.32,0,0,0,2.25-.76"/></g></g></g><g class="cls-2"><g class="cls-14"><g class="cls-2"><path d="M169,53l-6.18,4.24a14.39,14.39,0,0,1-7.57,2.43,16.82,16.82,0,0,1-12.75-4.76c-4.79-4.41-7.67-11.44-8.55-20.9-.85-9,.8-16.11,4.91-21.06a16.88,16.88,0,0,1,3.45-3.19l6.18-4.24A16.88,16.88,0,0,0,145,8.74c-4.11,4.95-5.76,12-4.91,21.06.88,9.46,3.75,16.49,8.55,20.9a16.79,16.79,0,0,0,12.74,4.76A14.39,14.39,0,0,0,169,53"/></g></g></g><path d="M170.24,9.24c3.82,4.58,6.16,11,6.92,19.22.73,7.79-.42,14.29-3.42,19.3s-7,7.42-12.34,7.7a16.79,16.79,0,0,1-12.74-4.76c-4.8-4.41-7.67-11.44-8.55-20.9-.85-9,.8-16.11,4.91-21.06A15.08,15.08,0,0,1,156.32,3,16.11,16.11,0,0,1,170.24,9.24ZM164.83,40a30.26,30.26,0,0,0,.52-10.85c-.37-4-1.5-16-8-15.66-2.32.12-4,1.81-4.9,5-.81,2.62-1,6.24-.55,11.06a33.2,33.2,0,0,0,2.51,10.93c1.78,3.8,4,4.5,5.61,4.42s3.74-1,4.79-4.89"/><g class="cls-2"><g class="cls-15"><g class="cls-2"><path d="M169,53l-6.18,4.24a14.39,14.39,0,0,1-7.57,2.43,16.82,16.82,0,0,1-12.75-4.76c-4.79-4.41-7.67-11.44-8.55-20.9-.85-9,.8-16.11,4.91-21.06a16.88,16.88,0,0,1,3.45-3.19l6.18-4.24A16.88,16.88,0,0,0,145,8.74c-4.11,4.95-5.76,12-4.91,21.06.88,9.46,3.75,16.49,8.55,20.9a16.79,16.79,0,0,0,12.74,4.76A14.39,14.39,0,0,0,169,53"/></g></g></g><g class="cls-2"><g class="cls-16"><g class="cls-2"><path d="M169,53l-6.18,4.24a14.39,14.39,0,0,1-7.57,2.43,16.82,16.82,0,0,1-12.75-4.76c-4.79-4.41-7.67-11.44-8.55-20.9-.85-9,.8-16.11,4.91-21.06a16.88,16.88,0,0,1,3.45-3.19l6.18-4.24A16.88,16.88,0,0,0,145,8.74c-4.11,4.95-5.76,12-4.91,21.06.88,9.46,3.75,16.49,8.55,20.9a16.79,16.79,0,0,0,12.74,4.76A14.39,14.39,0,0,0,169,53"/></g></g></g><g class="cls-2"><g class="cls-17"><g class="cls-2"><path d="M169,53l-6.18,4.24a14.39,14.39,0,0,1-7.57,2.43,16.82,16.82,0,0,1-12.75-4.76c-4.79-4.41-7.67-11.44-8.55-20.9-.85-9,.8-16.11,4.91-21.06a16.88,16.88,0,0,1,3.45-3.19l6.18-4.24A16.88,16.88,0,0,0,145,8.74c-4.11,4.95-5.76,12-4.91,21.06.88,9.46,3.75,16.49,8.55,20.9a16.79,16.79,0,0,0,12.74,4.76A14.39,14.39,0,0,0,169,53"/></g></g></g><g class="cls-2"><g class="cls-18"><g class="cls-2"><path class="cls-6" d="M170.68,55.49l-6.18,4.24a17.26,17.26,0,0,1-9,2.92,19.93,19.93,0,0,1-14.91-5.55c-5.39-5-8.6-12.66-9.56-22.9-.92-9.84.95-17.63,5.56-23.18a20,20,0,0,1,4-3.68l6.18-4.24a19.7,19.7,0,0,0-4,3.68c-4.61,5.55-6.48,13.34-5.56,23.18.95,10.24,4.17,17.94,9.55,22.9a20,20,0,0,0,14.92,5.55,17.26,17.26,0,0,0,9-2.92"/></g></g></g><path class="cls-19" d="M172.42,7.38c4.24,5.08,6.81,12.11,7.63,20.93.79,8.43-.49,15.52-3.8,21.06s-8.29,8.71-14.57,9a20,20,0,0,1-14.92-5.55c-5.38-5-8.6-12.66-9.55-22.9-.92-9.84.95-17.63,5.56-23.18A17.92,17.92,0,0,1,156,0,19.16,19.16,0,0,1,172.42,7.38Zm1.32,40.38c3-5,4.15-11.51,3.42-19.3-.76-8.18-3.1-14.64-6.92-19.22A16.11,16.11,0,0,0,156.32,3,15.08,15.08,0,0,0,145,8.74c-4.11,4.95-5.76,12-4.91,21.06.88,9.46,3.75,16.49,8.55,20.9a16.79,16.79,0,0,0,12.74,4.76c5.39-.28,9.42-2.8,12.34-7.7"/><path class="cls-19" d="M157.37,13.52c6.48-.34,7.61,11.7,8,15.66A30.26,30.26,0,0,1,164.83,40c-1.05,3.88-3.19,4.8-4.79,4.89s-3.83-.62-5.61-4.42a33.2,33.2,0,0,1-2.51-10.93c-.45-4.82-.26-8.44.55-11.06C153.41,15.33,155.05,13.64,157.37,13.52ZM162,39.11a27.75,27.75,0,0,0,.43-9.78c-.78-8.29-2.54-13-4.81-12.86-1,.05-1.83,1.07-2.4,3-.69,2.23-.84,5.56-.43,9.92A30.72,30.72,0,0,0,157,39.31c.86,1.81,1.77,2.7,2.73,2.65.38,0,1.51-.08,2.27-2.85"/></g><g class="cls-2"><g class="cls-2"><g class="cls-20"><g class="cls-2"><path class="cls-6" d="M127.06,27.36l-6.18,4.24c2.34-1.61,3.27-4.31,2.91-8.24a13.57,13.57,0,0,0-5-9.73c-2.91-2.36-7.31-3.4-13.06-3.1l6.18-4.24C117.67,6,122.07,7,125,9.39a13.56,13.56,0,0,1,5,9.73c.37,3.93-.56,6.63-2.9,8.24"/></g></g></g><g class="cls-2"><g class="cls-21"><g class="cls-2"><path class="cls-6" d="M128.76,29.83l-6.18,4.24-.59.38,6.18-4.24.59-.38"/></g></g></g><g class="cls-2"><g class="cls-22"><g class="cls-2"><path d="M127.06,27.36l-6.18,4.24a10.76,10.76,0,0,1-4.67,1.62L122.39,29a10.76,10.76,0,0,0,4.67-1.62"/></g></g></g><g class="cls-2"><g class="cls-23"><g class="cls-2"><path d="M116.61,25.91l-6.17,4.24a6,6,0,0,0,.68-.54A5.49,5.49,0,0,0,112.71,25c-.37-3.95-2.86-6-7-5.79l-.67.06L111.2,15l.67-.06c4.16-.21,6.64,1.84,7,5.79a5.49,5.49,0,0,1-1.58,4.66,6.08,6.08,0,0,1-.69.54"/></g></g></g><g class="cls-2"><g class="cls-24"><g class="cls-2"><path d="M116.61,25.91l-6.17,4.24a6,6,0,0,0,.68-.54A5.49,5.49,0,0,0,112.71,25c-.37-3.95-2.86-6-7-5.79l-.67.06L111.2,15l.67-.06c4.16-.21,6.64,1.84,7,5.79a5.49,5.49,0,0,1-1.58,4.66,6.08,6.08,0,0,1-.69.54"/></g></g></g><g class="cls-2"><g class="cls-25"><g class="cls-2"><path d="M111.2,15,105,19.22l-.88.1,6.18-4.24.88-.1"/></g></g></g><g class="cls-2"><g class="cls-26"><g class="cls-2"><path d="M116.61,25.91l-6.17,4.24a6,6,0,0,0,.68-.54A5.49,5.49,0,0,0,112.71,25c-.37-3.95-2.86-6-7-5.79l-.67.06L111.2,15l.67-.06c4.16-.21,6.64,1.84,7,5.79a5.49,5.49,0,0,1-1.58,4.66,6.08,6.08,0,0,1-.69.54"/></g></g></g><polygon class="cls-27" points="112.14 17.87 105.97 22.11 105.95 22.11 112.13 17.87 112.14 17.87"/><g class="cls-2"><g class="cls-28"><g class="cls-2"><path d="M116.61,25.91l-6.17,4.24a6,6,0,0,0,.68-.54A5.49,5.49,0,0,0,112.71,25c-.37-3.95-2.86-6-7-5.79l-.67.06L111.2,15l.67-.06c4.16-.21,6.64,1.84,7,5.79a5.49,5.49,0,0,1-1.58,4.66,6.08,6.08,0,0,1-.69.54"/></g></g></g><g class="cls-2"><g class="cls-29"><g class="cls-2"><path class="cls-6" d="M114.91,23.44l-6.18,4.24a3.44,3.44,0,0,0,.36-.28,2.64,2.64,0,0,0,.73-2.3c-.18-1.91-.91-3.14-3.85-3l6.17-4.24c3-.15,3.67,1.08,3.85,3a2.61,2.61,0,0,1-.72,2.3,3.44,3.44,0,0,1-.36.28"/></g></g></g><polygon points="110.32 15.08 104.14 19.32 102.8 19.48 108.98 15.24 110.32 15.08"/><g class="cls-2"><g class="cls-30"><g class="cls-2"><path class="cls-6" d="M130.1,52.32l-6.17,4.24c2.42-2.68,3.39-6,3-10.23-.31-3.26-1.28-5.71-2.91-7.28s-4.22-2.57-7.63-2.89l6.18-4.24c3.4.32,6,1.29,7.62,2.89s2.61,4,2.92,7.28c.39,4.21-.59,7.55-3,10.23"/></g></g></g><g class="cls-2"><g class="cls-31"><g class="cls-2"><path class="cls-6" d="M116.61,25.91l-6.17,4.24a7.94,7.94,0,0,1-4.12,1.25l6.18-4.24a7.87,7.87,0,0,0,4.11-1.25"/></g></g></g><g class="cls-2"><g class="cls-32"><g class="cls-2"><path d="M119.78,46.27l-6.18,4.24a6.15,6.15,0,0,0,1.61-5,6.41,6.41,0,0,0-2.55-4.77,8.22,8.22,0,0,0-5.43-1.42l6.18-4.24a8.2,8.2,0,0,1,5.42,1.42,6.42,6.42,0,0,1,2.56,4.77,6.15,6.15,0,0,1-1.61,5"/></g></g></g><polygon class="cls-27" points="111.92 6.29 105.74 10.53 90.7 11.31 96.88 7.08 111.92 6.29"/><polygon class="cls-27" points="112.5 27.16 106.32 31.4 103.93 31.52 110.1 27.28 112.5 27.16"/><polygon class="cls-27" points="110.1 27.28 103.93 31.52 102.8 19.48 108.98 15.24 110.1 27.28"/><g class="cls-2"><g class="cls-33"><g class="cls-2"><path class="cls-6" d="M127.88,54.29l-6.18,4.24a12.26,12.26,0,0,0,2.23-2l6.17-4.24a12.54,12.54,0,0,1-2.22,2"/></g></g></g><polygon points="122.39 28.98 116.21 33.22 103.74 34.94 109.92 30.7 122.39 28.98"/><polygon class="cls-27" points="122.57 31.92 116.39 36.16 103.74 34.94 109.92 30.7 122.57 31.92"/><g class="cls-2"><g class="cls-34"><g class="cls-2"><path d="M119.78,46.27l-6.18,4.24a6.15,6.15,0,0,0,1.61-5,6.41,6.41,0,0,0-2.55-4.77,8.22,8.22,0,0,0-5.43-1.42l6.18-4.24a8.2,8.2,0,0,1,5.42,1.42,6.42,6.42,0,0,1,2.56,4.77,6.15,6.15,0,0,1-1.61,5"/></g></g></g><g class="cls-2"><g class="cls-35"><g class="cls-2"><path d="M119.78,46.27l-6.18,4.24a6.15,6.15,0,0,0,1.61-5,6.41,6.41,0,0,0-2.55-4.77,8.22,8.22,0,0,0-5.43-1.42l6.18-4.24a8.2,8.2,0,0,1,5.42,1.42,6.42,6.42,0,0,1,2.56,4.77,6.15,6.15,0,0,1-1.61,5"/></g></g></g><g class="cls-2"><g class="cls-36"><g class="cls-2"><path class="cls-6" d="M117.66,44.16l-6.18,4.24a3.29,3.29,0,0,0,.83-2.77,3.35,3.35,0,0,0-1.3-2.56,5.1,5.1,0,0,0-3.18-.84L114,38a5.12,5.12,0,0,1,3.18.84,3.38,3.38,0,0,1,1.3,2.56,3.33,3.33,0,0,1-.83,2.77"/></g></g></g><polygon points="113.41 35.05 107.23 39.29 104.67 39.42 110.84 35.18 113.41 35.05"/><g class="cls-2"><g class="cls-37"><g class="cls-2"><path class="cls-6" d="M117.13,44.6,111,48.84a3.67,3.67,0,0,0,.52-.44l6.18-4.24a3.75,3.75,0,0,1-.53.44"/></g></g></g><g class="cls-2"><g class="cls-38"><g class="cls-2"><path d="M118.82,47.08l-6.17,4.24a6.67,6.67,0,0,0,.95-.81l6.18-4.24a6.24,6.24,0,0,1-1,.81"/></g></g></g><g class="cls-2"><g class="cls-39"><g class="cls-2"><path d="M127.88,54.29l-6.18,4.24a14.93,14.93,0,0,1-7.87,2.4L120,56.69a15,15,0,0,0,7.87-2.4"/></g></g></g><g class="cls-2"><g class="cls-40"><g class="cls-2"><path class="cls-6" d="M118.82,47.08l-6.17,4.24a7.84,7.84,0,0,1-4.07,1.25H108l6.18-4.24h.59a7.8,7.8,0,0,0,4.06-1.25"/></g></g></g><g class="cls-2"><g class="cls-41"><g class="cls-2"><path class="cls-6" d="M114.17,48.34,108,52.58h-.76l6.18-4.24h.76"/></g></g></g><g class="cls-2"><g class="cls-42"><g class="cls-2"><path class="cls-6" d="M129.61,56.73,123.44,61a17.83,17.83,0,0,1-9.33,2.91l6.18-4.24a17.77,17.77,0,0,0,9.32-2.91"/></g></g></g><polygon class="cls-27" points="113.41 48.33 107.23 52.57 105.89 52.52 112.07 48.28 113.41 48.33"/><polygon class="cls-27" points="112.07 48.28 105.89 52.52 104.67 39.42 110.84 35.18 112.07 48.28"/><path class="cls-19" d="M118.83,36.47a6.42,6.42,0,0,1,2.56,4.77,6.15,6.15,0,0,1-1.61,5,7.21,7.21,0,0,1-5,2.06h-1.35l-1.34,0-1.23-13.1,2.57-.13A8.2,8.2,0,0,1,118.83,36.47Zm-1.17,7.69a3.33,3.33,0,0,0,.83-2.77,3.38,3.38,0,0,0-1.3-2.56A5.12,5.12,0,0,0,114,38l.69,7.37a4.43,4.43,0,0,0,3-1.2"/><path d="M130.19,34.81c1.63,1.57,2.61,4,2.92,7.28.39,4.21-.59,7.55-3,10.23s-5.7,4.14-10.09,4.37l-18.4,1L96.88,7.07l15-.78C117.67,6,122.07,7,125,9.39a13.56,13.56,0,0,1,5,9.73c.56,5.93-1.84,9.06-7.57,9.86L109.92,30.7l12.65,1.22C126,32.24,128.54,33.21,130.19,34.81ZM119.78,46.27a6.15,6.15,0,0,0,1.61-5,6.42,6.42,0,0,0-2.56-4.77,8.2,8.2,0,0,0-5.42-1.42l-2.57.13,1.23,13.1,1.34,0h1.35a7.21,7.21,0,0,0,5-2.06m-10.8-31,1.12,12,2.4-.12a7.41,7.41,0,0,0,4.8-1.79,5.49,5.49,0,0,0,1.58-4.66c-.37-3.95-2.85-6-7-5.79l-.67.06-.88.1-1.34.16"/><polygon points="120.01 56.69 113.83 60.93 95.44 61.89 101.61 57.65 120.01 56.69"/><polygon points="101.61 57.65 95.44 61.89 90.7 11.31 96.88 7.08 101.61 57.65"/><path class="cls-19" d="M136,41.94c-.38-4-1.67-7.12-3.86-9.23a12,12,0,0,0-4-2.5c3.58-2.11,5.19-5.92,4.69-11.24a16.78,16.78,0,0,0-6.12-11.86c-3.52-2.85-8.6-4.11-15.1-3.77l-17.93.94L99,60.75l21.29-1.11c5.09-.27,9.14-2,12-5.28S136.47,46.94,136,41.94Zm-5.9,10.38c-2.39,2.71-5.7,4.14-10.09,4.37l-18.4,1L96.88,7.07l15-.78C117.67,6,122.07,7,125,9.39a13.56,13.56,0,0,1,5,9.73c.56,5.93-1.85,9.06-7.57,9.86L109.92,30.7l12.65,1.22c3.4.32,6,1.29,7.62,2.89s2.61,4,2.92,7.28c.39,4.21-.59,7.55-3,10.23"/><path class="cls-19" d="M112.5,27.16a7.41,7.41,0,0,0,4.8-1.79,5.49,5.49,0,0,0,1.58-4.66c-.37-3.95-2.85-6-7-5.79l-.67.06-.88.1-1.34.16,1.12,12Zm-.36-9.29c3-.15,3.67,1.08,3.85,3a2.61,2.61,0,0,1-.72,2.3,4.38,4.38,0,0,1-2.55,1l-.59-6.29h0"/><polygon class="cls-27" points="99 60.76 92.82 65 87.53 8.52 93.71 4.28 99 60.76"/><polygon class="cls-27" points="120.28 59.64 114.11 63.88 92.82 65 99 60.76 120.28 59.64"/></g><g class="cls-2"><g class="cls-2"><g class="cls-43"><g class="cls-2"><path d="M77.29,44.61l-6.18,4.24c.79-2.7,1-6.24.53-10.85-.37-4-1.49-16-8-15.65a4.27,4.27,0,0,0-2.27.75l6.18-4.24a4.24,4.24,0,0,1,2.27-.75c6.47-.34,7.6,11.69,8,15.65.43,4.61.26,8.15-.53,10.85"/></g></g></g><g class="cls-2"><g class="cls-44"><g class="cls-2"><path d="M77.29,44.61l-6.18,4.24c.79-2.7,1-6.24.53-10.85-.37-4-1.49-16-8-15.65a4.27,4.27,0,0,0-2.27.75l6.18-4.24a4.24,4.24,0,0,1,2.27-.75c6.47-.34,7.6,11.69,8,15.65.43,4.61.26,8.15-.53,10.85"/></g></g></g><g class="cls-2"><g class="cls-45"><g class="cls-2"><path class="cls-6" d="M86.22,52.35,80,56.59c3-5,4.14-11.51,3.41-19.3-.77-8.18-3.09-14.64-6.92-19.22s-8.31-6.56-13.92-6.26a14.79,14.79,0,0,0-7.84,2.57l6.17-4.24a14.86,14.86,0,0,1,7.85-2.57C74.4,7.27,79,9.32,82.71,13.83s6.15,11,6.92,19.22c.73,7.79-.42,14.29-3.41,19.3"/></g></g></g><g class="cls-2"><g class="cls-46"><g class="cls-2"><path d="M81.45,57.61l-6.18,4.24a14.4,14.4,0,0,1-7.58,2.44,16.86,16.86,0,0,1-12.75-4.76c-4.78-4.41-7.66-11.45-8.55-20.9-.84-9,.82-16.12,4.92-21.06a17.18,17.18,0,0,1,3.46-3.19l6.17-4.24a17.14,17.14,0,0,0-3.45,3.19c-4.11,4.94-5.76,12-4.92,21.06.89,9.45,3.77,16.49,8.55,20.9a16.86,16.86,0,0,0,12.75,4.76,14.4,14.4,0,0,0,7.58-2.44"/></g></g></g><g class="cls-2"><g class="cls-47"><g class="cls-2"><path d="M77.29,44.61l-6.18,4.24c.79-2.7,1-6.24.53-10.85-.37-4-1.49-16-8-15.65a4.27,4.27,0,0,0-2.27.75l6.18-4.24a4.24,4.24,0,0,1,2.27-.75c6.47-.34,7.6,11.69,8,15.65.43,4.61.26,8.15-.53,10.85"/></g></g></g><g class="cls-2"><g class="cls-48"><g class="cls-2"><path class="cls-6" d="M74.5,43.69l-6.18,4.24a27.48,27.48,0,0,0,.42-9.77c-.77-8.3-2.52-13-4.79-12.87a1.65,1.65,0,0,0-.84.3l6.17-4.24a1.65,1.65,0,0,1,.84-.3c2.28-.11,4,4.57,4.8,12.87a27.72,27.72,0,0,1-.42,9.77"/></g></g></g><g class="cls-2"><g class="cls-49"><g class="cls-2"><path class="cls-6" d="M81.45,57.61l-6.18,4.24A16.51,16.51,0,0,0,80,56.59l6.18-4.24a16.51,16.51,0,0,1-4.77,5.26"/></g></g></g><g class="cls-2"><g class="cls-50"><g class="cls-2"><path class="cls-6" d="M73.07,46.27l-6.18,4.24a4.36,4.36,0,0,0,1.43-2.58l6.18-4.24a4.36,4.36,0,0,1-1.43,2.58"/></g></g></g><g class="cls-2"><g class="cls-51"><g class="cls-2"><path d="M74.76,48.75,68.58,53a6.87,6.87,0,0,0,2.53-4.14l6.18-4.24a6.92,6.92,0,0,1-2.53,4.14"/></g></g></g><g class="cls-2"><g class="cls-52"><g class="cls-2"><path class="cls-6" d="M74.76,48.75,68.58,53a4.3,4.3,0,0,1-2.25.75c-1.57.09-3.82-.62-5.61-4.41a33.23,33.23,0,0,1-2.5-10.93c-.45-4.82-.28-8.44.54-11.06A7.49,7.49,0,0,1,61.4,23.1l6.18-4.24a7.49,7.49,0,0,0-2.64,4.24c-.82,2.62-1,6.24-.54,11.06a33.26,33.26,0,0,0,2.49,10.93c1.8,3.79,4,4.5,5.62,4.41a4.33,4.33,0,0,0,2.25-.75"/></g></g></g><g class="cls-2"><g class="cls-53"><g class="cls-2"><path d="M81.45,57.61l-6.18,4.24a14.4,14.4,0,0,1-7.58,2.44,16.86,16.86,0,0,1-12.75-4.76c-4.78-4.41-7.66-11.45-8.55-20.9-.84-9,.82-16.12,4.92-21.06a17.18,17.18,0,0,1,3.46-3.19l6.17-4.24a17.14,17.14,0,0,0-3.45,3.19c-4.11,4.94-5.76,12-4.92,21.06.89,9.45,3.77,16.49,8.55,20.9a16.86,16.86,0,0,0,12.75,4.76,14.4,14.4,0,0,0,7.58-2.44"/></g></g></g><g class="cls-2"><g class="cls-54"><g class="cls-2"><path d="M81.45,57.61l-6.18,4.24a14.4,14.4,0,0,1-7.58,2.44,16.86,16.86,0,0,1-12.75-4.76c-4.78-4.41-7.66-11.45-8.55-20.9-.84-9,.82-16.12,4.92-21.06a17.18,17.18,0,0,1,3.46-3.19l6.17-4.24a17.14,17.14,0,0,0-3.45,3.19c-4.11,4.94-5.76,12-4.92,21.06.89,9.45,3.77,16.49,8.55,20.9a16.86,16.86,0,0,0,12.75,4.76,14.4,14.4,0,0,0,7.58-2.44"/></g></g></g><g class="cls-2"><g class="cls-55"><g class="cls-2"><path d="M81.45,57.61l-6.18,4.24a14.4,14.4,0,0,1-7.58,2.44,16.86,16.86,0,0,1-12.75-4.76c-4.78-4.41-7.66-11.45-8.55-20.9-.84-9,.82-16.12,4.92-21.06a17.18,17.18,0,0,1,3.46-3.19l6.17-4.24a17.14,17.14,0,0,0-3.45,3.19c-4.11,4.94-5.76,12-4.92,21.06.89,9.45,3.77,16.49,8.55,20.9a16.86,16.86,0,0,0,12.75,4.76,14.4,14.4,0,0,0,7.58-2.44"/></g></g></g><g class="cls-2"><g class="cls-56"><g class="cls-2"><path d="M81.45,57.61l-6.18,4.24a14.4,14.4,0,0,1-7.58,2.44,16.86,16.86,0,0,1-12.75-4.76c-4.78-4.41-7.66-11.45-8.55-20.9-.84-9,.82-16.12,4.92-21.06a17.18,17.18,0,0,1,3.46-3.19l6.17-4.24a17.14,17.14,0,0,0-3.45,3.19c-4.11,4.94-5.76,12-4.92,21.06.89,9.45,3.77,16.49,8.55,20.9a16.86,16.86,0,0,0,12.75,4.76,14.4,14.4,0,0,0,7.58-2.44"/></g></g></g><g class="cls-2"><g class="cls-57"><g class="cls-2"><path class="cls-6" d="M83.15,60.07,77,64.31a17.2,17.2,0,0,1-9,2.93,19.94,19.94,0,0,1-14.92-5.56c-5.38-5-8.59-12.66-9.55-22.9-.92-9.83,1-17.63,5.56-23.17a19.94,19.94,0,0,1,4-3.68l6.18-4.24a19.41,19.41,0,0,0-4,3.68c-4.61,5.54-6.48,13.34-5.56,23.17,1,10.24,4.17,17.94,9.55,22.9A19.93,19.93,0,0,0,74.14,63a17.21,17.21,0,0,0,9-2.93"/></g></g></g><path class="cls-19" d="M84.89,12c4.24,5.08,6.8,12.11,7.63,20.92C93.31,41.33,92,48.42,88.71,54s-8.28,8.71-14.57,9a19.93,19.93,0,0,1-14.91-5.56c-5.38-5-8.59-12.66-9.55-22.9-.92-9.83,1-17.63,5.56-23.17A17.9,17.9,0,0,1,68.51,4.62,19.15,19.15,0,0,1,84.89,12Zm1.33,40.38c3-5,4.14-11.51,3.41-19.3-.77-8.18-3.09-14.64-6.92-19.22S74.4,7.27,68.79,7.57a15.06,15.06,0,0,0-11.3,5.76c-4.11,4.94-5.76,12-4.92,21.06.89,9.45,3.77,16.49,8.55,20.9a16.86,16.86,0,0,0,12.75,4.76c5.38-.28,9.42-2.81,12.35-7.7"/><path class="cls-19" d="M69.85,18.11c6.47-.34,7.6,11.69,8,15.65.43,4.61.26,8.15-.53,10.85-1.05,3.89-3.18,4.81-4.78,4.89s-3.82-.62-5.62-4.41A33.26,33.26,0,0,1,64.4,34.16c-.46-4.82-.28-8.44.54-11.06C65.87,19.92,67.53,18.23,69.85,18.11ZM74.5,43.69a27.72,27.72,0,0,0,.42-9.77c-.78-8.3-2.52-13-4.8-12.87-1,.06-1.82,1.08-2.39,3-.71,2.24-.85,5.57-.44,9.92a31.06,31.06,0,0,0,2.21,9.9c.85,1.81,1.77,2.69,2.73,2.64.37,0,1.52-.07,2.27-2.85"/><path d="M82.71,13.83c3.83,4.58,6.15,11,6.92,19.22.73,7.79-.42,14.29-3.41,19.3s-7,7.42-12.35,7.7a16.86,16.86,0,0,1-12.75-4.76c-4.78-4.41-7.66-11.45-8.55-20.9-.84-9,.81-16.12,4.92-21.06a15.06,15.06,0,0,1,11.3-5.76C74.4,7.27,79,9.32,82.71,13.83ZM77.29,44.61c.79-2.7,1-6.24.53-10.85-.37-4-1.5-16-8-15.65-2.32.12-4,1.81-4.91,5-.82,2.62-1,6.24-.54,11.06a33.26,33.26,0,0,0,2.49,10.93c1.8,3.79,4,4.5,5.62,4.41s3.73-1,4.78-4.89"/></g><g class="cls-2"><g class="cls-2"><g class="cls-58"><g class="cls-2"><path class="cls-6" d="M39.53,32l-6.18,4.24c2.34-1.61,3.28-4.31,2.91-8.24a13.61,13.61,0,0,0-5-9.74c-2.9-2.36-7.3-3.4-13.07-3.1l6.18-4.24c5.77-.3,10.16.74,13.07,3.1a13.61,13.61,0,0,1,5,9.74c.36,3.93-.57,6.63-2.91,8.24"/></g></g></g><g class="cls-2"><g class="cls-59"><g class="cls-2"><path class="cls-6" d="M41.23,34.41l-6.18,4.24c-.19.14-.39.26-.6.39l6.18-4.24c.21-.13.41-.25.6-.39"/></g></g></g><g class="cls-2"><g class="cls-60"><g class="cls-2"><path d="M39.53,32l-6.18,4.24a10.9,10.9,0,0,1-4.67,1.62l6.17-4.24A10.94,10.94,0,0,0,39.53,32"/></g></g></g><g class="cls-2"><g class="cls-61"><g class="cls-2"><path d="M29.07,30.51,22.9,34.75a6.13,6.13,0,0,0,.68-.56,5.46,5.46,0,0,0,1.6-4.66c-.37-4-2.86-6-7-5.78l-.67.05,6.18-4.24.66,0c4.15-.22,6.65,1.83,7,5.78a5.38,5.38,0,0,1-2.29,5.22"/></g></g></g><g class="cls-2"><g class="cls-62"><g class="cls-2"><path d="M29.07,30.51,22.9,34.75a6.13,6.13,0,0,0,.68-.56,5.46,5.46,0,0,0,1.6-4.66c-.37-4-2.86-6-7-5.78l-.67.05,6.18-4.24.66,0c4.15-.22,6.65,1.83,7,5.78a5.38,5.38,0,0,1-2.29,5.22"/></g></g></g><g class="cls-2"><g class="cls-63"><g class="cls-2"><path d="M23.68,19.56,17.5,23.8l-.89.1,6.18-4.24.89-.1"/></g></g></g><g class="cls-2"><g class="cls-64"><g class="cls-2"><path d="M29.07,30.51,22.9,34.75a6.13,6.13,0,0,0,.68-.56,5.46,5.46,0,0,0,1.6-4.66c-.37-4-2.86-6-7-5.78l-.67.05,6.18-4.24.66,0c4.15-.22,6.65,1.83,7,5.78a5.38,5.38,0,0,1-2.29,5.22"/></g></g></g><polygon class="cls-27" points="24.62 22.46 18.44 26.7 18.42 26.7 24.6 22.46 24.62 22.46"/><g class="cls-2"><g class="cls-65"><g class="cls-2"><path d="M29.07,30.51,22.9,34.75a6.13,6.13,0,0,0,.68-.56,5.46,5.46,0,0,0,1.6-4.66c-.37-4-2.86-6-7-5.78l-.67.05,6.18-4.24.66,0c4.15-.22,6.65,1.83,7,5.78a5.38,5.38,0,0,1-2.29,5.22"/></g></g></g><g class="cls-2"><g class="cls-66"><g class="cls-2"><path class="cls-6" d="M27.38,28,21.2,32.27a2.45,2.45,0,0,0,.35-.29,2.55,2.55,0,0,0,.73-2.29c-.18-1.91-.9-3.14-3.84-3l6.18-4.24c2.94-.15,3.66,1.08,3.84,3a2.58,2.58,0,0,1-.73,2.29,3.17,3.17,0,0,1-.35.29"/></g></g></g><polygon points="22.79 19.66 16.61 23.9 15.27 24.07 21.45 19.83 22.79 19.66"/><g class="cls-2"><g class="cls-67"><g class="cls-2"><path class="cls-6" d="M42.58,56.9,36.4,61.14c2.41-2.67,3.39-6,3-10.22-.31-3.26-1.29-5.71-2.92-7.28s-4.21-2.58-7.62-2.9L35,36.5c3.41.32,6,1.3,7.62,2.9s2.61,4,2.91,7.28c.4,4.21-.58,7.55-3,10.22"/></g></g></g><g class="cls-2"><g class="cls-68"><g class="cls-2"><path class="cls-6" d="M29.07,30.51,22.9,34.75A7.88,7.88,0,0,1,18.8,36L25,31.74a7.83,7.83,0,0,0,4.1-1.23"/></g></g></g><g class="cls-2"><g class="cls-69"><g class="cls-2"><path d="M32.25,50.86,26.07,55.1a6.14,6.14,0,0,0,1.61-5,6.41,6.41,0,0,0-2.55-4.76,8.17,8.17,0,0,0-5.43-1.42l6.18-4.24a8.17,8.17,0,0,1,5.43,1.42,6.4,6.4,0,0,1,2.54,4.76,6.13,6.13,0,0,1-1.6,5"/></g></g></g><polygon class="cls-27" points="24.38 10.87 18.2 15.11 3.18 15.9 9.35 11.66 24.38 10.87"/><polygon class="cls-27" points="24.97 31.74 18.8 35.98 16.4 36.11 22.58 31.87 24.97 31.74"/><polygon class="cls-27" points="22.58 31.87 16.4 36.11 15.27 24.07 21.45 19.83 22.58 31.87"/><g class="cls-2"><g class="cls-70"><g class="cls-2"><path class="cls-6" d="M40.35,58.88l-6.18,4.24a11.94,11.94,0,0,0,2.23-2l6.18-4.24a11.94,11.94,0,0,1-2.23,2"/></g></g></g><polygon points="34.85 33.57 28.68 37.81 16.2 39.53 22.38 35.29 34.85 33.57"/><polygon class="cls-27" points="35.04 36.5 28.86 40.74 16.2 39.53 22.38 35.29 35.04 36.5"/><g class="cls-2"><g class="cls-71"><g class="cls-2"><path d="M32.25,50.86,26.07,55.1a6.14,6.14,0,0,0,1.61-5,6.41,6.41,0,0,0-2.55-4.76,8.17,8.17,0,0,0-5.43-1.42l6.18-4.24a8.17,8.17,0,0,1,5.43,1.42,6.4,6.4,0,0,1,2.54,4.76,6.13,6.13,0,0,1-1.6,5"/></g></g></g><g class="cls-2"><g class="cls-72"><g class="cls-2"><path d="M32.25,50.86,26.07,55.1a6.14,6.14,0,0,0,1.61-5,6.41,6.41,0,0,0-2.55-4.76,8.17,8.17,0,0,0-5.43-1.42l6.18-4.24a8.17,8.17,0,0,1,5.43,1.42,6.4,6.4,0,0,1,2.54,4.76,6.13,6.13,0,0,1-1.6,5"/></g></g></g><g class="cls-2"><g class="cls-73"><g class="cls-2"><path class="cls-6" d="M30.12,48.74,24,53a3.83,3.83,0,0,0-.48-5.32,5,5,0,0,0-3.16-.84l6.17-4.24a5,5,0,0,1,3.17.84A3.27,3.27,0,0,1,31,46a3.26,3.26,0,0,1-.84,2.77"/></g></g></g><polygon points="25.88 39.64 19.7 43.88 17.14 44.01 23.32 39.77 25.88 39.64"/><g class="cls-2"><g class="cls-74"><g class="cls-2"><path d="M31.3,51.66,25.12,55.9a6.1,6.1,0,0,0,.95-.8l6.18-4.24a6.1,6.1,0,0,1-.95.8"/></g></g></g><g class="cls-2"><g class="cls-75"><g class="cls-2"><path class="cls-6" d="M29.6,49.18l-6.18,4.24A3.18,3.18,0,0,0,24,53l6.17-4.24a3.11,3.11,0,0,1-.52.44"/></g></g></g><g class="cls-2"><g class="cls-76"><g class="cls-2"><path d="M40.35,58.88l-6.18,4.24a15,15,0,0,1-7.86,2.4l6.17-4.24a15.07,15.07,0,0,0,7.87-2.4"/></g></g></g><g class="cls-2"><g class="cls-77"><g class="cls-2"><path class="cls-6" d="M31.3,51.66,25.12,55.9a7.84,7.84,0,0,1-4.07,1.26h-.59l6.17-4.24h.6a7.84,7.84,0,0,0,4.07-1.26"/></g></g></g><g class="cls-2"><g class="cls-78"><g class="cls-2"><path class="cls-6" d="M26.63,52.93l-6.17,4.24H19.7l6.17-4.24h.76"/></g></g></g><g class="cls-2"><g class="cls-79"><g class="cls-2"><path class="cls-6" d="M42.09,61.32l-6.18,4.24a17.89,17.89,0,0,1-9.33,2.91l6.18-4.24a17.92,17.92,0,0,0,9.33-2.91"/></g></g></g><polygon class="cls-27" points="24.54 52.87 18.36 57.11 17.14 44.01 23.32 39.77 24.54 52.87"/><polygon class="cls-27" points="25.87 52.92 19.7 57.16 18.36 57.11 24.54 52.87 25.87 52.92"/><path class="cls-19" d="M31.31,41.06a6.4,6.4,0,0,1,2.54,4.76,6.13,6.13,0,0,1-1.6,5,7.27,7.27,0,0,1-5,2.06H25.87l-1.33-.05-1.22-13.1,2.56-.13A8.17,8.17,0,0,1,31.31,41.06Zm-1.19,7.68A3.26,3.26,0,0,0,31,46a3.27,3.27,0,0,0-1.31-2.55,5,5,0,0,0-3.17-.84L27.17,50a4.41,4.41,0,0,0,2.95-1.21"/><path d="M42.66,39.4c1.63,1.57,2.61,4,2.91,7.28.4,4.21-.58,7.55-3,10.22s-5.71,4.15-10.1,4.38l-18.39,1L9.35,11.66l15-.79c5.77-.3,10.16.74,13.07,3.1a13.61,13.61,0,0,1,5,9.74c.55,5.92-1.86,9.06-7.59,9.86L22.38,35.29,35,36.5C38.45,36.82,41,37.8,42.66,39.4ZM32.25,50.86a6.13,6.13,0,0,0,1.6-5,6.4,6.4,0,0,0-2.54-4.76,8.17,8.17,0,0,0-5.43-1.42l-2.56.13,1.22,13.1,1.33.05h1.36a7.27,7.27,0,0,0,5-2.06m-10.8-31,1.13,12L25,31.74A7.25,7.25,0,0,0,29.76,30a5.49,5.49,0,0,0,1.6-4.66c-.37-3.95-2.87-6-7-5.78l-.66,0-.89.1-1.34.17"/><polygon points="32.48 61.28 26.31 65.52 7.91 66.48 14.09 62.24 32.48 61.28"/><polygon points="14.09 62.24 7.91 66.48 3.18 15.9 9.35 11.66 14.09 62.24"/><path class="cls-19" d="M44.62,37.29c2.17,2.11,3.47,5.22,3.84,9.24.47,5-.77,9.18-3.69,12.42s-6.91,5-12,5.28l-21.3,1.11L6.18,8.86,24.1,7.92c6.52-.34,11.59.93,15.1,3.78a16.73,16.73,0,0,1,6.13,11.86c.5,5.32-1.11,9.12-4.7,11.24A12.08,12.08,0,0,1,44.62,37.29Zm-2,19.61c2.41-2.67,3.39-6,3-10.22-.3-3.26-1.28-5.71-2.91-7.28S38.45,36.82,35,36.5L22.38,35.29l12.47-1.72c5.73-.8,8.14-3.94,7.59-9.86a13.61,13.61,0,0,0-5-9.74c-2.91-2.36-7.3-3.4-13.07-3.1l-15,.79,4.74,50.58,18.39-1c4.39-.23,7.69-1.66,10.1-4.38"/><path class="cls-19" d="M25,31.74A7.25,7.25,0,0,0,29.76,30a5.49,5.49,0,0,0,1.6-4.66c-.37-3.95-2.87-6-7-5.78l-.66,0-.89.1-1.34.17,1.13,12Zm-.35-9.28c2.94-.15,3.66,1.08,3.84,3a2.61,2.61,0,0,1-.73,2.3,4.32,4.32,0,0,1-2.54,1l-.59-6.29h0"/><polygon class="cls-27" points="11.46 65.34 5.29 69.58 0 13.1 6.18 8.86 11.46 65.34"/><polygon class="cls-27" points="32.76 64.23 26.58 68.47 5.29 69.58 11.46 65.34 32.76 64.23"/></g><g class="cls-2"><polygon class="cls-27" points="135.59 86.33 129.41 90.56 128.49 80.69 134.67 76.45 135.59 86.33"/><polygon points="135.59 86.33 129.41 90.56 121.29 90.99 127.46 86.75 135.59 86.33"/><polygon class="cls-27" points="138.76 89.12 132.58 93.36 124.46 93.79 130.64 89.55 138.76 89.12"/><polygon class="cls-27" points="134.67 76.45 128.49 80.69 101.27 82.11 107.45 77.87 134.67 76.45"/><polygon points="108.37 87.75 102.2 91.99 101.27 82.11 107.45 77.88 108.37 87.75"/><polygon points="116.19 87.34 110.01 91.58 102.2 91.99 108.37 87.75 116.19 87.34"/><polygon points="120 128.04 113.82 132.28 110.01 91.58 116.19 87.34 120 128.04"/><polygon class="cls-27" points="113.57 90.44 107.39 94.68 101.78 94.98 107.95 90.74 113.57 90.44"/><polygon class="cls-27" points="131.27 127.45 125.1 131.69 121.29 90.99 127.46 86.75 131.27 127.45"/><polygon class="cls-27" points="105.76 90.85 99.58 95.09 98.11 79.32 104.28 75.08 105.76 90.85"/><polygon class="cls-27" points="107.95 90.74 101.78 94.98 99.58 95.09 105.76 90.85 107.95 90.74"/><polygon points="134.67 76.45 135.59 86.33 127.46 86.75 131.27 127.45 120 128.04 116.19 87.34 108.37 87.75 107.45 77.88 134.67 76.45"/><polygon points="131.27 127.45 125.1 131.69 113.82 132.28 120 128.04 131.27 127.45"/><polygon class="cls-27" points="117.38 131.15 111.2 135.38 107.39 94.68 113.57 90.44 117.38 131.15"/><polygon class="cls-27" points="134.45 130.25 128.27 134.49 111.2 135.38 117.38 131.15 134.45 130.25"/><path class="cls-19" d="M104.28,75.08l33-1.73,1.48,15.77-8.12.43,3.81,40.7-17.07.9-3.81-40.71-5.61.3-2.2.11Zm31.31,11.24-.92-9.87-27.22,1.42.92,9.88,7.82-.41L120,128l11.27-.59-3.81-40.7,8.13-.43"/></g><g class="cls-2"><polygon class="cls-27" points="104.79 87.94 98.61 92.18 97.69 82.3 103.86 78.06 104.79 87.94"/><polygon points="104.79 87.94 98.61 92.18 90.48 92.61 96.66 88.36 104.79 87.94"/><polygon class="cls-27" points="105.76 90.85 99.58 95.09 93.66 95.4 99.84 91.16 105.76 90.85"/><polygon class="cls-27" points="103.86 78.06 97.69 82.3 70.47 83.73 76.65 79.49 103.86 78.06"/><polygon points="85.39 88.96 79.21 93.2 71.39 93.61 77.57 89.36 85.39 88.96"/><polygon points="77.57 89.36 71.39 93.61 70.47 83.73 76.65 79.49 77.57 89.36"/><polygon class="cls-27" points="100.47 129.07 94.3 133.31 90.48 92.61 96.66 88.36 100.47 129.07"/><polygon points="89.19 129.66 83.02 133.9 79.21 93.2 85.39 88.96 89.19 129.66"/><polygon class="cls-27" points="82.77 92.06 76.59 96.3 68.78 96.71 74.96 92.47 82.77 92.06"/><polygon class="cls-27" points="74.96 92.47 68.78 96.71 67.3 80.93 73.48 76.69 74.96 92.47"/><polygon points="103.86 78.06 104.79 87.94 96.66 88.36 100.47 129.07 89.19 129.66 85.39 88.96 77.57 89.36 76.65 79.49 103.86 78.06"/><polygon points="100.47 129.07 94.3 133.31 83.02 133.9 89.19 129.66 100.47 129.07"/><path class="cls-19" d="M73.48,76.69l30.8-1.61,1.48,15.77-5.92.31,3.81,40.7-17.07.9-3.81-40.7L75,92.47Zm31.31,11.25-.93-9.88L76.65,79.49l.92,9.88L85.39,89l3.81,40.7,11.27-.59L96.66,88.36l8.13-.42"/><polygon class="cls-27" points="86.58 132.76 80.4 137 76.59 96.3 82.77 92.06 86.58 132.76"/><polygon class="cls-27" points="103.65 131.87 97.47 136.1 80.4 137 86.58 132.76 103.65 131.87"/></g><g class="cls-2"><polygon class="cls-27" points="71.59 89.44 65.41 93.68 64.51 84.04 70.68 79.8 71.59 89.44"/><polygon points="71.59 89.44 65.41 93.68 53.24 94.32 59.41 90.08 71.59 89.44"/><polygon class="cls-27" points="74.75 92.24 68.58 96.48 56.41 97.11 62.59 92.87 74.75 92.24"/><polygon class="cls-27" points="72.19 109.4 66.01 113.64 65.16 104.5 71.33 100.26 72.19 109.4"/><polygon class="cls-27" points="70.68 79.8 64.51 84.04 41.07 85.27 47.24 81.03 70.68 79.8"/><polygon class="cls-27" points="71.33 100.26 65.16 104.5 54.24 105.07 60.42 100.83 71.33 100.26"/><polygon class="cls-27" points="60.42 100.83 54.24 105.07 53.24 94.32 59.41 90.08 60.42 100.83"/><polygon points="72.19 109.4 66.01 113.64 55.1 114.21 61.28 109.97 72.19 109.4"/><polygon class="cls-27" points="75.36 112.21 69.18 116.45 58.28 117.02 64.45 112.78 75.36 112.21"/><polygon class="cls-27" points="75.42 130.38 69.24 134.62 68.31 124.71 74.49 120.47 75.42 130.38"/><polygon class="cls-27" points="62.32 121.11 56.14 125.35 55.1 114.21 61.28 109.97 62.32 121.11"/><polygon class="cls-27" points="74.49 120.47 68.31 124.71 56.14 125.35 62.32 121.11 74.49 120.47"/><polygon points="70.68 79.8 71.59 89.44 59.41 90.08 60.42 100.83 71.33 100.26 72.19 109.4 61.28 109.97 62.32 121.11 74.49 120.47 75.42 130.38 51.98 131.61 47.24 81.03 70.68 79.8"/><polygon points="75.42 130.38 69.24 134.62 45.8 135.85 51.98 131.61 75.42 130.38"/><polygon points="51.98 131.61 45.8 135.85 41.07 85.27 47.24 81.03 51.98 131.61"/><polygon class="cls-27" points="49.35 134.71 43.18 138.95 37.89 82.47 44.07 78.23 49.35 134.71"/><polygon class="cls-27" points="78.58 133.18 72.41 137.42 43.18 138.95 49.35 134.71 78.58 133.18"/><path class="cls-19" d="M74.75,92.24l-12.16.63L63,97.72,74,97.15l1.41,15.06-10.91.57.49,5.22,12.16-.63,1.48,15.81-29.23,1.53L44.07,78.23,73.3,76.7Zm-3.42,8-10.91.57-1-10.75,12.18-.64-.91-9.64L47.24,81,52,131.61l23.44-1.23-.93-9.91-12.17.64-1-11.14,10.91-.57-.86-9.14"/></g><g class="cls-2"><polygon class="cls-27" points="39.05 91.14 32.87 95.38 31.97 85.75 38.15 81.51 39.05 91.14"/><polygon points="39.05 91.14 32.87 95.38 22 95.95 28.18 91.71 39.05 91.14"/><polygon class="cls-27" points="42.22 93.94 36.04 98.18 25.17 98.75 31.35 94.51 42.22 93.94"/><polygon class="cls-27" points="40.16 111.08 33.99 115.32 33.13 106.18 39.31 101.94 40.16 111.08"/><polygon class="cls-27" points="38.15 81.51 31.97 85.75 9.82 86.91 16 82.67 38.15 81.51"/><polygon class="cls-27" points="29.18 102.47 23.01 106.71 22 95.95 28.18 91.71 29.18 102.47"/><polygon class="cls-27" points="39.31 101.94 33.13 106.18 23.01 106.71 29.18 102.47 39.31 101.94"/><polygon points="40.16 111.08 33.99 115.32 23.86 115.85 30.04 111.61 40.16 111.08"/><polygon class="cls-27" points="43.33 113.89 37.15 118.13 27.03 118.66 33.21 114.42 43.33 113.89"/><polygon class="cls-27" points="32.01 132.66 25.83 136.9 23.86 115.85 30.04 111.61 32.01 132.66"/><polygon points="32.01 132.66 25.83 136.9 14.56 137.49 20.73 133.25 32.01 132.66"/><polygon points="20.73 133.25 14.56 137.49 9.82 86.91 16 82.67 20.73 133.25"/><path class="cls-19" d="M42.21,93.94l-10.86.57.45,4.85,10.12-.53,1.41,15.06-10.12.53,2,21-17.07.9L12.82,79.87l27.94-1.46Zm-2.9,8-10.12.53-1-10.76,10.87-.57-.9-9.63L16,82.67l4.73,50.58L32,132.66l-2-21,10.12-.53-.85-9.14"/><polygon points="38.15 81.51 39.05 91.14 28.18 91.71 29.18 102.47 39.31 101.94 40.16 111.08 30.04 111.61 32.01 132.66 20.73 133.25 16 82.67 38.15 81.51"/><polygon class="cls-27" points="18.11 136.35 11.93 140.59 6.65 84.11 12.82 79.87 18.11 136.35"/><polygon class="cls-27" points="35.18 135.45 29 139.69 11.93 140.59 18.11 136.35 35.18 135.45"/></g></g></g></svg>